<?xml version="1.0" encoding="UTF-8" standalone="no"?>
<!-- Created with Inkscape (http://www.inkscape.org/) -->

<svg
   xmlns:dc="http://purl.org/dc/elements/1.1/"
   xmlns:cc="http://creativecommons.org/ns#"
   xmlns:rdf="http://www.w3.org/1999/02/22-rdf-syntax-ns#"
   xmlns:svg="http://www.w3.org/2000/svg"
   xmlns="http://www.w3.org/2000/svg"
   xmlns:sodipodi="http://sodipodi.sourceforge.net/DTD/sodipodi-0.dtd"
   xmlns:inkscape="http://www.inkscape.org/namespaces/inkscape"
   width="1000"
   height="1000"
   viewBox="0 0 1000 1000"
   id="svg2"
   version="1.1"
   inkscape:version="0.91 r"
   sodipodi:docname="logo.svg"
   inkscape:export-filename="/home/shahid/Desktop/logo1.png"
   inkscape:export-xdpi="90"
   inkscape:export-ydpi="90">
  <defs
     id="defs4" />
  <sodipodi:namedview
     id="base"
     pagecolor="#ffffff"
     bordercolor="#666666"
     borderopacity="1.0"
     inkscape:pageopacity="0.0"
     inkscape:pageshadow="2"
     inkscape:zoom="0.24748737"
     inkscape:cx="703.32405"
     inkscape:cy="208.6147"
     inkscape:document-units="px"
     inkscape:current-layer="layer1"
     showgrid="false"
     units="px"
     inkscape:window-width="1366"
     inkscape:window-height="712"
     inkscape:window-x="0"
     inkscape:window-y="29"
     inkscape:window-maximized="1" />
  <metadata
     id="metadata7">
    <rdf:RDF>
      <cc:Work
         rdf:about="">
        <dc:format>image/svg+xml</dc:format>
        <dc:type
           rdf:resource="http://purl.org/dc/dcmitype/StillImage" />
        <dc:title />
      </cc:Work>
    </rdf:RDF>
  </metadata>
  <g
     inkscape:label="Layer 1"
     inkscape:groupmode="layer"
     id="layer1"
     transform="translate(0,-52.362161)">
    <g
       transform="matrix(1.8485281,0,0,1.8485281,8.829556,-64.894172)"
       id="g4351" />
    <g
       transform="matrix(1.8485281,0,0,1.8485281,8.829556,-64.894172)"
       id="g4353" />
    <g
       transform="matrix(1.8485281,0,0,1.8485281,8.829556,-64.894172)"
       id="g4355" />
    <g
       transform="matrix(1.8485281,0,0,1.8485281,8.829556,-64.894172)"
       id="g4357" />
    <g
       transform="matrix(1.8485281,0,0,1.8485281,8.829556,-64.894172)"
       id="g4359" />
    <g
       transform="matrix(1.8485281,0,0,1.8485281,8.829556,-64.894172)"
       id="g4361" />
    <g
       transform="matrix(1.8485281,0,0,1.8485281,8.829556,-64.894172)"
       id="g4363" />
    <g
       transform="matrix(1.8485281,0,0,1.8485281,8.829556,-64.894172)"
       id="g4365" />
    <g
       transform="matrix(1.8485281,0,0,1.8485281,8.829556,-64.894172)"
       id="g4367" />
    <g
       transform="matrix(1.8485281,0,0,1.8485281,8.829556,-64.894172)"
       id="g4369" />
    <g
       transform="matrix(1.8485281,0,0,1.8485281,8.829556,-64.894172)"
       id="g4371" />
    <g
       transform="matrix(1.8485281,0,0,1.8485281,8.829556,-64.894172)"
       id="g4373" />
    <g
       transform="matrix(1.8485281,0,0,1.8485281,8.829556,-64.894172)"
       id="g4375" />
    <g
       transform="matrix(1.8485281,0,0,1.8485281,8.829556,-64.894172)"
       id="g4377" />
    <g
       transform="matrix(1.8485281,0,0,1.8485281,8.829556,-64.894172)"
       id="g4379" />
    <g
       transform="matrix(45.381729,0,0,45.381729,1.1023267,-152.46362)"
       id="g5074" />
    <g
       transform="matrix(45.381729,0,0,45.381729,1.1023267,-152.46362)"
       id="g5076" />
    <g
       transform="matrix(45.381729,0,0,45.381729,1.1023267,-152.46362)"
       id="g5078" />
    <g
       transform="matrix(45.381729,0,0,45.381729,1.1023267,-152.46362)"
       id="g5080" />
    <g
       transform="matrix(45.381729,0,0,45.381729,1.1023267,-152.46362)"
       id="g5082" />
    <g
       transform="matrix(45.381729,0,0,45.381729,1.1023267,-152.46362)"
       id="g5084" />
    <g
       transform="matrix(45.381729,0,0,45.381729,1.1023267,-152.46362)"
       id="g5086" />
    <g
       transform="matrix(45.381729,0,0,45.381729,1.1023267,-152.46362)"
       id="g5088" />
    <g
       transform="matrix(45.381729,0,0,45.381729,1.1023267,-152.46362)"
       id="g5090" />
    <g
       transform="matrix(45.381729,0,0,45.381729,1.1023267,-152.46362)"
       id="g5092" />
    <g
       transform="matrix(45.381729,0,0,45.381729,1.1023267,-152.46362)"
       id="g5094" />
    <g
       transform="matrix(45.381729,0,0,45.381729,1.1023267,-152.46362)"
       id="g5096" />
    <g
       transform="matrix(45.381729,0,0,45.381729,1.1023267,-152.46362)"
       id="g5098" />
    <g
       transform="matrix(45.381729,0,0,45.381729,1.1023267,-152.46362)"
       id="g5100" />
    <g
       transform="matrix(45.381729,0,0,45.381729,1.1023267,-152.46362)"
       id="g5102" />
    <g
       id="g10314">
      <g
         id="g5070"
         transform="matrix(40.545186,0,0,40.545186,53.458348,-75.839526)">
        <path
           id="path5072"
           d="m 3.782,11.166 0,4.388 c 0.611,-0.593 1.917,-1.002 3.433,-1.002 2.066,0 3.745,0.762 3.8,1.709 l 0.011,0 c 0.055,-0.947 1.731,-1.709 3.802,-1.709 1.516,0 2.818,0.409 3.432,1.002 l 0,-4.388 -7.237,2.957 -7.241,-2.957 z m -0.673,1.629 c 0,-0.614 -0.45,-1.118 -1.038,-1.209 l 0,-1.702 8.947,3.657 L 22.039,9.039 11.019,4.535 0,9.039 l 1.69,0.688 0,1.856 c -0.588,0.092 -1.04,0.596 -1.04,1.21 0,0.481 0.282,0.897 0.688,1.099 -0.277,0.765 -0.463,2.096 -0.463,3.613 l 2.007,0 c 0,-1.52 -0.185,-2.852 -0.463,-3.613 0.41,-0.199 0.69,-0.615 0.69,-1.097 z"
           style="fill:#010002"
           inkscape:connector-curvature="0" />
      </g>
      <g
         transform="translate(8,-48)"
         id="text5713"
         style="font-style:normal;font-weight:normal;font-size:183.48402405px;line-height:125%;font-family:sans-serif;letter-spacing:0px;word-spacing:0px;fill:#000000;fill-opacity:1;stroke:none;stroke-width:1px;stroke-linecap:butt;stroke-linejoin:miter;stroke-opacity:1">
        <path
           inkscape:connector-curvature="0"
           id="path10255"
           style="font-style:normal;font-variant:normal;font-weight:normal;font-stretch:normal;font-family:'Charu Chandan Unicode';-inkscape-font-specification:'Charu Chandan Unicode'"
           d="m 95.383829,813.16033 q 27.415091,-22.12917 44.527131,-33.41774 -24.45857,-26.87755 -50.261007,-28.4902 -16.036934,4.21082 -25.533666,22.93551 l 6.002652,0.26877 q 15.051423,0.80633 22.935503,4.47959 7.884078,3.67327 8.421628,5.55469 2.41898,11.55735 -6.092241,28.66938 z m 58.682631,31.44673 0,2.59816 1.88143,1.0751 q 0.53755,0.26878 0.53755,0.53755 0.26878,2.86694 0.26878,8.15286 0,1.25428 0.26877,3.31489 0.26878,4.47959 3.58368,24.1002 -0.80633,0.53755 -2.06062,1.16469 -14.69305,0.26878 -20.96448,-4.12122 -2.68775,-7.07775 -10.9302,-10.30306 -10.57183,-4.65877 -25.26489,-6.5402 -14.603465,-1.97102 -36.374274,5.37551 -3.314897,1.43347 -6.988162,1.70224 -3.673264,0.26878 -9.138364,-2.95653 -5.4651,-3.31489 -5.196325,-5.01714 19.083055,-6.27142 39.062029,-6.27142 25.085706,-1.88143 49.365086,7.97367 l 4.12122,1.61265 q 0.53755,-0.71674 0.89592,-2.06061 l 1.70225,-12.18449 0,-0.53755 -0.17919,-0.53755 q -1.34387,-3.67326 15.40979,-7.07775 z m -16.84326,18.81428 q 1.43347,-18.72469 1.88143,-34.49285 l 0,-15.49938 q 0.26878,-3.94204 0.26878,-13.17 l 0,-8.6904 q -27.86306,16.30571 -44.706316,38.97243 -1.881428,1.52306 -7.704895,1.70225 -5.733876,0.0896 -14.155506,-5.10674 l 1.523061,-1.88142 q 17.380811,-18.18714 13.438771,-36.55346 -5.733876,-6.89857 -20.247749,-8.51122 -7.615304,-0.71674 -12.363669,-0.71674 -1.612653,0 -6.629794,-2.95653 l -0.268776,0 q -1.52306,-0.98551 -2.598162,-1.52306 l 0,-1.61265 q 9.765507,-14.96183 18.993463,-21.8604 11.019793,-8.42163 26.071217,-8.42163 2.060611,0 4.47959,0.26877 17.291215,0.26878 44.706315,21.32285 l 0,-9.22795 q 0,-8.42163 -0.26878,-11.55735 -0.26877,-3.94204 7.61531,-4.74836 5.55469,0 6.89857,2.32939 l 1.0751,2.1502 39.42039,0 q -0.44796,0.53755 -1.25428,0.80632 -11.82612,8.42163 -28.22142,8.42163 l -10.48224,0 -0.26878,3.67327 q -0.26877,3.40449 -0.26877,27.95264 -0.26878,17.11204 -0.26878,27.86306 0,22.9355 0.26878,35.11998 l 0,2.06062 1.79183,1.34387 0.26878,0 0.71673,12.54286 -19.7102,0 z" />
        <path
           inkscape:connector-curvature="0"
           id="path10257"
           style="font-style:normal;font-variant:normal;font-weight:normal;font-stretch:normal;font-family:'Charu Chandan Unicode';-inkscape-font-specification:'Charu Chandan Unicode'"
           d="m 262.83092,837.43971 q 0.80632,-55.7261 -0.53755,-84.57467 l -48.55877,0 q 19.97898,17.29122 18.36633,34.13448 -1.61266,16.75367 -19.44143,36.46387 28.13183,-5.4651 50.17142,13.97632 z m 52.5008,-93.80262 -1.25429,0.80632 q -7.34653,8.95919 -25.26489,8.42163 l -10.48224,0 -0.26878,3.22531 q 0,4.12122 -0.26877,28.22142 0,17.38081 -0.26878,27.59428 -0.26877,17.38081 0,32.88019 l 0.26878,2.06061 1.88143,1.0751 q 0.26877,0.26878 0.26877,0.53755 l 0.71674,16.75367 0,0.26878 q 0.26877,4.21081 3.2253,14.51387 -0.80633,0.44796 -2.41898,0.98551 l -0.80632,0.26878 -0.44796,0 -1.34388,1.34387 q -1.88143,2.06062 -6.27143,3.13572 -2.68775,0.26877 0.44796,0.26877 -6.00265,0 -7.07775,-1.61265 l -0.98551,-1.25429 -1.88143,-0.26877 q -1.88143,-0.26878 -2.86694,-0.80633 l 2.32939,-19.7102 0,-1.0751 -0.26877,-0.71673 q -15.23061,-34.94081 -51.4257,-31.80509 l -3.22531,1.25428 q -7.88408,10.30306 -11.55734,14.2451 -2.32939,1.79184 -4.21082,2.06061 l -0.98551,0 -0.53755,0.26878 q -0.26877,0 -0.53755,0 l -0.26877,0 -0.26878,0 q -5.28592,1.0751 -14.96183,-8.69041 19.7102,-12.27408 29.11734,-22.9355 9.49673,-10.66143 13.43877,-18.54551 3.67326,-6.27142 2.06061,-12.36367 1.0751,-7.07775 -9.58632,-17.4704 -10.57184,-10.48224 -25.98163,-12.09489 -15.3202,-1.61266 -30.81958,-1.61266 l -0.80633,0 q -0.53755,0 -0.80632,0.26878 0.53755,-0.44796 1.0751,-0.71673 11.28857,-8.78 24.36897,-8.78 l 1.34388,-0.80633 q 14.42428,-3.67326 17.64958,-3.67326 2.86694,0 7.79449,3.67326 l 1.0751,0.80633 58.86182,0 1.0751,-1.0751 q 3.13572,-2.32939 7.88408,-3.13572 l 0,0 q 3.94204,-0.26877 4.92755,1.79184 l 1.0751,2.41898 37.2702,0 z" />
        <path
           inkscape:connector-curvature="0"
           id="path10259"
           style="font-style:normal;font-variant:normal;font-weight:normal;font-stretch:normal;font-family:'Charu Chandan Unicode';-inkscape-font-specification:'Charu Chandan Unicode'"
           d="m 245.62929,930.70478 q 19.08306,1.34388 23.74183,-13.25958 4.56918,-14.51388 -9.76551,-27.05673 l -7.34653,0.80633 q -15.32019,3.31489 -19.71019,11.19897 -6.36102,11.19898 0.53755,21.68122 3.31489,5.19633 12.54285,6.62979 z m 69.34406,-8.42163 q 1.88143,4.21082 0.80633,10.30306 -2.59817,4.21082 -16.57449,-4.21081 l 0,-0.26878 q 0,-0.53755 0.80633,-2.32938 2.86694,-10.30306 -2.41898,-20.42694 -5.73388,-10.03428 -19.7102,-14.78265 l -9.22795,-1.52306 q 11.82611,10.9302 11.37816,24.81693 -0.26878,8.69041 -4.47959,13.17 -8.69041,9.76551 -22.12918,9.76551 -2.41898,0 -5.01714,-0.26878 -19.17265,-2.06061 -27.05673,-12.90122 -3.76286,-5.28591 -4.74836,-11.82612 -1.07511,-6.36102 2.32938,-11.28856 l 0,0 q 6.6298,-10.84061 25.80244,-15.05143 9.49673,-1.79183 18.45592,-1.79183 11.28856,0 24.18978,4.74836 12.90122,6.27143 18.6351,14.69306 6.09224,8.15285 7.16734,16.57448 l 0,1.0751 0.98551,0.53755 0.80633,0.98551 z" />
        <path
           inkscape:connector-curvature="0"
           id="path10261"
           style="font-style:normal;font-variant:normal;font-weight:normal;font-stretch:normal;font-family:'Charu Chandan Unicode';-inkscape-font-specification:'Charu Chandan Unicode'"
           d="m 446.04617,698.84118 q 3.13572,1.34388 3.94204,2.59817 0.80633,3.49408 -2.68775,6.36101 -2.86694,1.61266 -8.42163,-1.34387 -33.68652,-15.05143 -65.22284,-15.76816 -31.44672,-0.80633 -44.07917,21.8604 -5.01714,13.43877 -3.2253,27.41509 l 0.26877,3.67327 35.38877,0 q 0.80632,0 1.88142,0 -0.80632,0.53755 -1.34387,1.34388 -6.6298,7.88407 -26.07122,7.88407 l -8.24245,0 -0.26877,2.59817 q -0.53755,8.15285 -0.53755,59.84733 l 0,0 q 0.26877,11.55734 0.26877,31.6259 l 0,2.06062 2.32939,1.0751 q 0,0 0,0 0.26878,6.89857 0.80633,15.05142 0.26877,1.0751 0.26877,1.61265 0.26878,5.73388 2.15021,14.15551 -0.53756,0.26877 -3.85245,2.77735 -3.3149,2.50857 -11.10939,1.97102 -7.70489,-0.53756 -9.8551,-2.59817 0,0 0.80633,-3.58367 0.80633,-3.58367 1.34388,-8.24245 1.52306,-24.0106 2.59816,-47.75243 l 0.26878,-70.59835 -34.22407,0 q -0.53756,0 -1.07511,0 l 0,0 q 0.53755,-0.26877 0.80633,-0.80632 10.75102,-8.42163 18.45591,-8.42163 l 15.76816,0 -1.0751,-4.74837 q -3.13571,-10.30306 -0.98551,-21.05407 2.06061,-10.84061 9.49673,-18.99347 l 0,0 0,0 q 9.94469,-12.90122 33.41775,-15.05142 10.30305,-1.34388 24.81693,0.80633 15.2306,1.61265 42.37692,8.15285 l 24.81693,6.09224 z" />
        <path
           inkscape:connector-curvature="0"
           id="path10263"
           style="font-style:normal;font-variant:normal;font-weight:normal;font-stretch:normal;font-family:'Charu Chandan Unicode';-inkscape-font-specification:'Charu Chandan Unicode'"
           d="m 462.53107,860.19603 q -1.79184,27.95265 -39.59958,32.7906 l -0.26878,0 q -6.36102,0.98551 -12.36367,0.98551 -6.5402,0 -17.4704,-3.04612 -15.05143,-4.30041 -25.1753,-17.11203 l 0,0 q -10.12387,-12.0949 -13.34918,-28.75897 7.79449,-6.09225 18.6351,-2.77735 0.71673,1.52306 1.52306,5.28592 0.71673,5.55469 1.52306,8.33203 l -3.3149,0.98551 1.79184,3.76286 q 8.06326,17.64959 24.18979,26.2504 l 0.53755,0.26878 q 11.82612,3.76285 22.21877,2.50857 l 0.17918,0 q 11.91571,-1.79184 20.69571,-10.57184 l 0,0 q 5.55469,-8.86959 5.82346,-16.12652 0.26878,-11.91571 -5.10673,-21.23326 l -0.17918,0 q -2.77735,-5.01714 -10.21347,-10.03428 -7.43612,-5.10674 -16.48489,-6.80898 l 0,4.47959 q 0,10.84061 -0.53755,20.96448 l 3.3149,0.53755 q 1.97101,0.17919 3.04612,0.71674 0,0.98551 0,3.31489 -0.53755,4.74837 -0.53755,8.33204 0,2.50857 -0.53756,2.68776 l -0.26877,0.26877 -0.17918,0.26878 q -1.52306,1.25428 -7.7049,2.77734 -6.18183,1.52306 -13.0804,-0.53755 l -0.71674,-0.44796 q 3.76286,-23.74183 0.98551,-48.46916 l -0.26877,-2.50857 -0.71674,-0.26878 q 4.03163,-1.97102 8.60082,-1.97102 37.091,0 51.42569,26.2504 4.56919,11.55734 3.58368,18.90387 z m -89.6814,-64.05814 q 32.16345,-0.53755 43.98957,8.86959 0.80633,-29.20693 -1.0751,-52.14244 l -14.06591,0 q -13.17,16.39531 -25.26489,37.2702 l -3.58367,6.00265 z m 130.17689,-52.5008 q 0.53755,0 1.43347,0 -0.53755,0.53755 -1.43347,1.16469 l 0,0 q -12.36367,8.33204 -25.80244,8.06326 l -28.49019,0 7.16734,6.98817 q 10.12388,9.67591 7.07775,26.96713 l 0,0.26878 q -0.26877,1.70224 -1.88142,3.04612 l -0.26878,0.26877 -0.26877,0.26878 q -1.1647,1.34388 -4.65878,1.34388 -2.77734,0 -6.36102,-0.80633 -5.4651,-2.1502 -7.70489,-5.4651 0.26877,-1.43347 1.61265,-3.85245 2.2398,-3.58367 3.58367,-4.92755 0.89592,-0.26877 1.43347,-0.26877 l 2.68776,-0.62715 q 6.09224,-5.19632 1.0751,-12.18448 -4.92755,-6.98816 -9.8551,-10.21347 l -1.0751,-0.80633 -8.78,0 0.26878,4.03164 q 0.26877,27.77346 3.76285,71.85263 l 0,0 -16.93285,-4.83796 -0.35837,-0.80633 Q 401.967,800.61748 375.89579,800.61748 l -6.09225,0.53755 -3.31489,6.5402 q -5.19633,0.26878 -10.48224,-3.58367 -5.19633,-3.85245 -5.73388,-10.9302 6.09224,-5.55469 9.67592,-9.67592 10.9302,-12.90122 18.63509,-24.18979 l 4.39,-6.45061 -53.03835,0 q -0.26878,0 -0.80633,0 0.53755,-0.26877 1.0751,-0.53755 l 0,-0.26877 q 12.0949,-8.42163 26.16081,-8.42163 l 32.70101,0 1.34388,-1.88143 q 1.70224,-2.50857 8.24245,-2.50857 l 1.43347,0 q 4.65877,0.26878 6.00265,4.39 l 8.24244,0 7.97367,-3.58367 q 6.6298,-1.07511 6.36102,-1.07511 1.0751,0 1.61265,0 1.43347,0 2.2398,0.26878 l 4.92755,4.39 65.5812,0 z" />
        <path
           inkscape:connector-curvature="0"
           id="path10265"
           style="font-style:normal;font-variant:normal;font-weight:normal;font-stretch:normal;font-family:'Charu Chandan Unicode';-inkscape-font-specification:'Charu Chandan Unicode'"
           d="m 643.14814,752.86504 -59.93692,0 q 10.48224,10.21347 15.49939,23.38347 24.18978,0 44.70631,8.60081 l -0.26878,-31.98428 z m 72.30059,0 -13.25958,0 q -21.23326,27.50469 -37.2702,50.26101 l -4.21081,6.00265 q 30.19244,-5.01714 53.12794,19.17265 1.61265,-56.80121 1.61265,-67.55223 l 0,-7.88408 z m 23.65224,0 q 15.94734,6.54021 29.02775,18.90388 13.0804,12.36367 10.30305,38.97243 -0.53755,2.86694 -3.13571,5.4651 -1.34388,1.07511 -5.01714,1.07511 -1.79184,0 -6.5402,-1.61266 -8.95918,-3.13571 -12.0949,-8.42163 0,-1.79183 2.68776,-6.27142 3.13571,-5.28592 5.73387,-7.07776 0.53755,-0.26877 1.61266,-0.26877 l 2.32938,-0.53755 q 2.59817,-2.32939 1.88143,-8.42163 l 0,-0.26878 q -8.95918,-18.72469 -36.55346,-26.60877 l -0.26877,5.28592 q -0.26878,1.79184 -0.26878,48.91713 -0.26877,18.18714 0,33.14897 l 0,2.06061 1.88143,1.0751 q 0.53755,0.26878 0.53755,0.53755 0.17918,2.95653 0.17918,8.24245 0,6.5402 0.26878,8.60081 0.26878,4.47959 2.95653,14.69306 -0.80633,0.53755 -2.1502,1.0751 -4.74837,3.67326 -14.42428,4.47959 l 0,0 -1.61266,-1.34388 q -4.65877,-1.79183 -6.00265,-2.06061 l 0.53755,-5.28591 2.59816,-24.36898 0,-0.53755 -0.26877,-0.53755 q -8.78,-24.54815 -26.60877,-34.22407 -7.6153,-4.21081 -15.76816,-4.21081 -3.13571,0 -11.55734,0.53755 l -1.52306,0.53755 -1.0751,1.25428 q -7.88408,12.36367 -12.0949,18.36632 -1.0751,0.53755 -2.32938,0.53755 -8.51122,-2.32938 -13.52837,-12.54285 5.01715,-5.28592 6.80898,-7.16734 4.21082,-4.39 11.37816,-12.81163 19.7102,-22.12918 33.14897,-43.45203 l 3.94204,-5.73388 -76.5114,0 q -0.53756,0 -1.07511,0 0.53755,-0.53755 1.07511,-0.80632 11.82611,-8.42163 24.90652,-8.42163 l 56.35325,0 0.44795,-0.26878 q 13.70755,-5.28591 17.38082,0.26878 l 9.04877,0 q 1.25428,-6.5402 13.61795,0 83.49957,0 83.76834,0 -0.53755,0.53755 -1.0751,0.80632 -12.09489,8.69041 -24.90652,8.42163 l -48.02121,0 z m -97.3863,66.92509 q 0.0896,-0.98551 0.17919,-2.06062 0.44796,-10.75101 0.44796,-17.29121 l -0.80633,-1.07511 q -18.90387,-14.69305 -40.76427,-15.49938 -1.25429,21.77081 -12.0949,32.88019 -16.84326,15.49939 -37.89733,19.17265 -1.79184,-3.13571 1.34388,-5.01714 20.24774,-4.74837 29.4757,-18.81428 9.22796,-14.06591 6.00265,-28.22142 -5.19632,-19.97897 -35.20958,-30.99877 l -35.47835,0 q -0.53756,0.26878 -1.07511,0.26878 0.53755,-0.53755 1.07511,-0.80633 11.28856,-8.6904 24.72733,-8.6904 l 7.07776,0 0.53755,-0.26878 q 7.07775,-3.94204 14.42428,-3.94204 2.68775,0 12.09489,4.21082 l 67.10427,0 q -0.53755,-3.49408 6.80898,-4.21082 2.1502,-0.26877 4.47959,0.17919 2.32938,0.35836 3.40448,1.88143 l 1.07511,2.1502 -1.61266,9.22795 -0.71673,41.21224 0.26877,2.1502 1.79184,0.98551 q 0.0896,0.0896 0.17918,0.17918 l -16.84326,22.39796 z" />
        <path
           inkscape:connector-curvature="0"
           id="path10267"
           style="font-style:normal;font-variant:normal;font-weight:normal;font-stretch:normal;font-family:'Charu Chandan Unicode';-inkscape-font-specification:'Charu Chandan Unicode'"
           d="m 748.68727,925.32928 q 19.08306,1.34387 23.74183,-13.25959 4.56919,-14.51387 -9.7655,-27.05673 l -7.34653,0.80633 q -15.3202,3.3149 -19.7102,11.19897 -6.36102,11.19898 0.53755,21.68122 3.3149,5.19633 12.54285,6.6298 z m 69.34406,-8.42163 q 1.88143,4.21081 0.80633,10.30305 -2.59816,4.21082 -16.57448,-4.21081 l 0,-0.26878 q 0,-0.53755 0.80632,-2.32938 2.86694,-10.30306 -2.41898,-20.42694 -5.73387,-10.03428 -19.71019,-14.78264 l -9.22796,-1.52306 q 11.82612,10.9302 11.37816,24.81693 -0.26878,8.6904 -4.47959,13.16999 -8.69041,9.76551 -22.12918,9.76551 -2.41898,0 -5.01714,-0.26878 -19.17265,-2.06061 -27.05673,-12.90122 -3.76285,-5.28591 -4.74836,-11.82612 -1.0751,-6.36101 2.32939,-11.28856 l 0,0 q 6.62979,-10.84061 25.80244,-15.05143 9.49673,-1.79183 18.45591,-1.79183 11.28857,0 24.18979,4.74836 12.90122,6.27143 18.63509,14.69306 6.09225,8.15285 7.16735,16.57448 l 0,1.07511 0.98551,0.53755 0.80632,0.98551 z" />
        <path
           inkscape:connector-curvature="0"
           id="path10269"
           style="font-style:normal;font-variant:normal;font-weight:normal;font-stretch:normal;font-family:'Charu Chandan Unicode';-inkscape-font-specification:'Charu Chandan Unicode'"
           d="m 867.21724,798.82564 q -13.08041,-10.84061 -27.4151,-9.8551 -17.11203,1.1647 -23.83142,11.91571 -6.62979,10.75102 -5.01714,24.45857 2.86694,17.82877 20.96448,25.1753 l 4.4796,-15.49939 q -6.09225,-3.40449 -5.82347,-8.42163 1.88143,-6.80897 9.58632,-7.79448 7.79449,-1.07511 12.81163,3.40448 -1.61265,6.27143 -4.74837,16.12653 -3.13571,9.8551 -5.01714,29.29652 l 0,1.52306 q -30.99876,-3.40449 -43.63121,-31.44672 -9.13836,-28.93816 8.95918,-48.37958 11.28857,-11.01979 30.99877,-11.28857 15.58897,0.26878 30.81958,13.79714 6.09224,-11.01979 15.67857,-13.79714 7.6153,-1.61265 18.09754,12.90122 l 0,-38.07652 -125.7869,0 q 0.53755,-0.53755 1.0751,-1.0751 11.55735,-8.15285 24.63775,-8.15285 l 100.07405,0 q 3.94204,-3.40449 8.42163,-3.94204 4.47959,-0.53755 6.5402,3.94204 l 39.15162,0 q -0.53755,0.26877 -1.25428,0.80632 -11.28857,8.42163 -31.80509,8.42163 l -6.09225,0 0,3.67327 q -0.26877,3.67326 -0.80632,35.47836 -0.44796,31.7155 0.53755,53.03835 l 0,2.06061 1.88143,1.0751 0,0.26877 q 0.53755,11.55735 0.80632,17.02245 0.53755,4.47959 2.86694,14.78265 -0.80633,0.44796 -2.06061,1.25428 -1.61265,0.26878 -2.41898,1.34388 l -0.26877,0 q -1.79184,2.32939 -7.07776,2.86694 -1.79183,0.26877 -3.94204,0.26877 -1.52306,0 -2.59816,-1.34387 l -1.0751,-1.25429 -1.79184,-0.26878 q -2.1502,-0.26877 -3.2253,-0.80632 l 0,-0.80633 q 0.53755,-2.59816 0.80632,-4.47959 0.26878,-1.52306 0.53755,-4.21081 0.26878,-2.06062 0.53756,-2.59817 l 0,-0.53755 q 1.79183,-22.30836 1.79183,-65.93957 l 0,-2.32939 q -2.59816,-9.94469 -12.72204,-8.51122 -10.12387,1.43347 -13.25958,28.4902 -2.06061,-0.53755 -6.00265,-2.86694 -4.74837,-2.95653 -7.61531,-6.89857 0,-3.67326 3.22531,-12.81163 z" />
      </g>
      <g
         id="text10271"
         style="font-style:normal;font-weight:normal;font-size:80.40110779px;line-height:125%;font-family:sans-serif;letter-spacing:0px;word-spacing:0px;fill:#000000;fill-opacity:1;stroke:none;stroke-width:1px;stroke-linecap:butt;stroke-linejoin:miter;stroke-opacity:1">
        <path
           id="path10276"
           style="font-style:normal;font-variant:normal;font-weight:200;font-stretch:normal;font-family:'Charukola Ultra Light';-inkscape-font-specification:'Charukola Ultra Light,  Ultra-Light'"
           d="m 63.072389,941.41972 q -0.157034,-0.90294 -0.314067,-1.72736 -0.117775,-0.86369 -0.274808,-1.72737 -0.117775,-0.90294 -0.235551,-1.76663 -0.117775,-0.86368 -0.196291,-1.64885 -0.157034,-1.57033 -0.23555,-2.70882 -0.07852,-1.1385 -0.07852,-1.84515 0,-4.00435 0.70665,-6.24207 0.785167,-2.19847 1.884401,-4.23991 1.059976,-1.76662 2.512535,-3.25844 1.491817,-1.53108 3.297701,-2.66957 3.847319,-2.27698 7.655379,-2.98363 4.828778,-1.05998 10.285689,-0.51036 1.570334,0.11777 3.219185,0.43184 1.648851,0.31407 3.415477,0.74591 1.766626,0.4711 6.124298,2.23773 2.43402,1.217 4.47546,2.47327 2.08069,1.21701 3.88657,2.59105 -0.19629,0.19629 -0.98145,0.86369 -0.78517,0.62813 -0.90295,0.78516 -0.11777,0.11778 -0.0785,0.0393 -5.10359,-3.96509 -10.364209,-5.92801 -5.260619,-1.96292 -11.738248,-2.23773 -2.787343,0 -6.202819,0.51036 -3.415477,0.4711 -7.184279,2.70883 -3.729544,2.23773 -5.96727,6.35985 -0.902942,2.0807 -1.334784,4.08287 -0.392583,2.00218 -0.353325,4.27916 0.03926,2.23773 0.549617,5.92801 0.510359,3.69029 0.902942,5.45691 l -2.473276,0 z m -9.382747,0 22.377262,0 0,2.23773 -10.050139,0 0,59.31935 -2.434018,0 0,-59.31935 -9.893105,0 0,-2.23773 z" />
        <path
           id="path10278"
           style="font-style:normal;font-variant:normal;font-weight:200;font-stretch:normal;font-family:'Charukola Ultra Light';-inkscape-font-specification:'Charukola Ultra Light,  Ultra-Light'"
           d="m 82.426758,953.9824 q 0.431842,0 0.9422,0.0393 0.510359,0.0393 1.020718,0.15703 l -1.45256,2.08069 q -0.628133,-0.11777 -1.256267,0 -0.588875,0.11778 -1.17775,0.39259 -1.256268,0.51035 -2.080693,1.57033 -0.824426,1.02072 -1.059976,2.66957 -0.274808,3.21918 1.805885,5.37839 3.258443,2.70883 6.045786,2.15921 4.318419,-0.98146 5.96727,-4.20064 0.510358,-1.13849 0.785167,-2.23773 0.314067,-1.09923 0.314067,-2.31624 0,-2.27699 -1.020718,-5.02507 -1.531075,-3.61177 -3.729543,-6.04579 -2.15921,-2.47327 -5.417653,-3.65102 -3.219185,-1.21701 -7.38057,-1.37405 l -0.274809,0 0,-2.15921 q 6.713179,0.11778 11.424181,2.74809 4.711002,2.63031 7.419829,8.87239 4.671744,-7.96945 11.502698,-7.96945 l 0.39258,0 q 8.55832,0.54962 15.07521,10.95308 l 0,-17.27367 2.51254,0 0,2.66956 11.58121,0 0,2.23773 -11.58121,0 0,59.31935 -2.51254,0 0,-40.47534 q -0.70665,-2.15921 -1.76663,-4.2399 -1.02071,-2.11995 -2.27698,-3.9651 -2.27698,-3.2977 -5.14284,-5.10358 -2.82661,-1.84514 -6.00653,-1.84514 -3.53325,0 -6.00653,1.96291 -2.434018,1.92366 -3.808061,5.33914 -0.4711,1.29553 -0.745908,2.63031 -0.274809,1.29553 -0.274809,2.43402 0,1.13849 0.314067,2.3555 0.314067,1.17775 0.785167,2.19847 0.785167,1.49181 2.316243,2.55179 1.570334,1.05997 3.768801,1.72737 1.60959,0.0393 2.98364,-0.43184 1.4133,-0.51036 2.66956,-1.64886 2.5518,-2.31624 2.0807,-5.61394 -0.27481,-1.53108 -1.1385,-2.59105 -0.82442,-1.09924 -2.04143,-1.60959 -1.21701,-0.51036 -2.51253,-0.39259 -0.51036,-0.66739 -0.78517,-1.02071 -0.27481,-0.35333 -0.70665,-0.94221 0.0393,0 0.0785,-0.0393 l 0.11778,-0.0785 q 0.51036,-0.15703 0.9422,-0.15703 0.4711,-0.0393 0.98146,-0.0393 1.37404,0 2.98363,0.58887 l 0,-0.0393 q 3.41548,1.53108 4.12213,4.9073 0.19629,0.58887 0.23555,1.13849 0.0785,0.51036 0.0785,0.98146 0,1.33478 -0.70665,3.02289 -0.82443,2.0807 -2.39476,3.53326 -2.63031,2.66956 -6.43837,2.66956 -0.90294,0 -1.37404,-0.11777 -4.043615,-0.98146 -7.341317,-5.33914 -3.454735,4.35768 -7.694637,5.41765 -0.07852,0.0393 -0.353325,0.0393 -0.274809,0 -0.667392,0 -1.766626,0 -3.415477,-0.70665 -1.648851,-0.70665 -3.10141,-1.96291 -0.70665,-0.6674 -1.295525,-1.57034 -0.588876,-0.90294 -1.020718,-1.96292 l 0,0.0393 q -0.314066,-0.86368 -0.510358,-1.60959 -0.196292,-0.78517 -0.196292,-1.45256 0,-0.43184 0.03926,-0.86368 0.07852,-0.4711 0.314067,-1.02072 0.588876,-3.57251 4.082869,-5.14285 l 0,0.0393 q 1.570334,-0.58887 2.983635,-0.58887 z" />
        <path
           id="path10280"
           style="font-style:normal;font-variant:normal;font-weight:200;font-stretch:normal;font-family:'Charukola Ultra Light';-inkscape-font-specification:'Charukola Ultra Light,  Ultra-Light'"
           d="m 177.62827,941.41972 11.93454,0 0,2.23773 -11.93454,0 0,59.31935 -2.43402,0 0,-0.2748 q -5.92801,-1.1777 -12.36638,-4.0436 -6.43837,-2.86586 -13.46562,-7.10576 l 0.0393,0 q -4.35768,-2.74808 -7.85167,-5.41765 -3.45474,-2.70883 -5.61394,-5.10359 l 23.12317,-19.43288 q 0.19629,-1.05998 0.2748,-2.08069 0.11778,-1.02072 0.11778,-1.96292 -0.15703,-6.39911 -4.98581,-12.64119 0.0393,3.7688 -1.13849,6.55614 -1.1385,2.78735 -2.94438,4.35768 -3.57251,2.90512 -8.24426,2.90512 -0.0393,0 -0.7459,-0.0393 -4.71101,-0.39258 -6.87022,-4.27916 -0.7459,-1.37404 -0.7459,-3.02289 -0.0785,-1.09924 0.51035,-2.8266 0.62814,-1.72737 2.11996,-2.82661 1.49181,-1.09923 3.25844,-1.17775 3.06215,-0.0393 4.16138,1.21701 l 0.0393,0.0393 q 1.29553,1.49182 1.57034,2.8266 -0.1963,0 -2.5518,0 -0.23555,-0.39258 -0.62813,-0.86368 -0.39258,-0.35333 -0.9422,-0.51036 -0.51036,-0.19629 -1.72737,-0.19629 -2.08069,0.27481 -2.8266,1.84514 -0.70665,1.57033 -0.54962,2.47328 0,0.43184 0.11778,0.90294 0.15703,0.43184 0.35332,0.78517 0.78517,1.49181 2.00218,2.19846 1.25627,0.70665 2.78734,0.82443 2.00218,0.11777 3.88658,-0.39258 1.8844,-0.54962 3.2977,-1.72737 3.41548,-2.98364 3.2977,-8.6761 0,-2.15921 -0.23555,-3.80806 0.19629,-0.0393 0.31407,-0.0785 0.11777,-0.0393 0.15703,-0.0785 0.0785,-0.0393 0.15704,-0.0393 0.11777,-0.0393 0.31406,-0.11778 0.27481,-0.0785 0.4711,-0.15703 0.23555,-0.0785 0.4711,-0.15703 0.1963,0.11777 0.27481,0.19629 0.0785,0.0785 0.27481,0.23555 0.0393,0.0393 0.0785,0.0785 0.0393,0 0.11777,0.0785 3.61177,3.57251 5.53543,7.85167 1.96292,4.27916 1.96292,8.99017 0,2.19846 -0.39259,4.43619 l -0.54961,0.58888 -21.3958,17.78403 q 2.78734,2.43402 5.53542,4.43619 2.74809,1.96292 5.53543,3.76881 12.4449,7.65537 24.61499,10.63901 l 0,-61.20377 2.43402,0 0,2.66956 z" />
        <path
           id="path10282"
           style="font-style:normal;font-variant:normal;font-weight:200;font-stretch:normal;font-family:'Charukola Ultra Light';-inkscape-font-specification:'Charukola Ultra Light,  Ultra-Light'"
           d="m 221.99021,941.41972 0,2.23773 -9.85385,0 q -4.08287,1.92366 -7.69464,4.78952 -3.57251,2.8266 -6.32059,6.43837 -3.69029,4.78952 -5.57469,10.52124 -1.84514,5.69246 -1.84514,12.28786 0,2.15921 0.15703,4.67175 0.1963,2.47327 0.90295,4.67174 1.02071,4.51471 2.98363,7.57686 2.00218,3.0229 4.82878,4.86804 1.37404,0.86367 2.8266,1.25627 1.45256,0.3926 2.98364,0.3926 0.78516,0 1.57033,-0.039 0.78517,-0.078 1.60959,-0.314 1.21701,-0.4319 2.08069,-1.37409 0.90295,-0.98146 1.09924,-2.47327 0.11777,-0.35333 0.11777,-1.53108 0,-1.53108 -0.78516,-3.14067 -1.49182,-2.3555 -4.71101,-2.3555 l -0.31406,0 q -0.39259,-2.3555 -0.39259,-2.47328 0.82443,-0.0393 1.05998,-0.0393 4.43619,0 6.47763,3.72954 0.66739,1.05998 0.90294,2.19847 0.27481,1.09923 0.27481,2.31624 0,0.70665 -0.11778,1.68811 l 0,-0.0393 q -0.86368,4.94654 -5.29987,5.88874 -2.0807,0.4711 -3.69029,0.4711 -3.88658,0 -6.98799,-2.1199 -3.45473,-2.11999 -5.6532,-5.57472 -2.19847,-3.45474 -3.21918,-8.47981 l 0,0.0393 q -0.82443,-2.55179 -1.02072,-5.1821 -0.15704,-2.66957 -0.15704,-4.78952 0,-6.47763 1.72737,-12.17009 1.76663,-5.69246 5.22136,-10.59976 1.84515,-2.47327 4.47546,-5.22136 2.63031,-2.78734 7.10576,-5.88875 l -24.30092,0 0,-2.23773 39.53316,0 z" />
        <path
           id="path10284"
           style="font-style:normal;font-variant:normal;font-weight:200;font-stretch:normal;font-family:'Charukola Ultra Light';-inkscape-font-specification:'Charukola Ultra Light,  Ultra-Light'"
           d="m 212.48969,941.41972 74.82642,0 0,2.23773 -74.82642,0 0,-2.23773 z m 29.48302,19.78621 q 3.57251,-7.02724 11.14937,-8.32277 1.05998,-0.2748 3.29771,-0.31406 2.23772,-0.0785 5.88875,0.9422 3.69028,0.98146 8.59758,5.29988 2.04143,2.27698 3.21918,4.711 1.21701,2.43402 1.80589,4.90729 0.35332,1.64885 0.54961,3.2977 0.1963,1.64885 0.1963,3.14067 0,1.57034 -0.1963,3.25845 -0.15703,1.6881 -0.54961,3.45473 -0.43184,2.00218 -1.53108,4.31842 -1.05997,2.27698 -2.70883,4.27916 l 0,-0.0393 q -3.45473,4.08287 -8.44054,6.3206 -4.98581,2.19846 -11.46344,2.19846 l -0.39258,0 q -3.33696,0 -6.90947,-1.05997 -3.57251,-1.09924 -7.06651,-3.14067 l 0,0.0393 q -6.24208,-3.80806 -10.59975,-10.0894 -4.35768,-6.32059 -6.67392,-15.31076 0.27481,-0.0393 0.43184,-0.0785 0.15703,-0.0785 0.27481,-0.0785 0.11777,-0.0393 0.23555,-0.0785 0.11777,-0.0393 0.31406,-0.11777 l -0.0393,0 q 0.66739,-0.15703 1.25626,-0.27481 4.35768,17.23442 16.44925,24.2224 3.2977,1.84515 6.3206,2.70883 3.02289,0.82443 6.08504,0.70665 5.96727,0 10.36421,-1.76662 4.39693,-1.76663 7.57686,-5.33914 1.64885,-1.96292 2.66957,-3.92584 1.05997,-1.96291 1.45256,-3.84731 0.31406,-1.53108 0.4711,-3.14067 0.19629,-1.6096 0.19629,-3.25845 0,-1.4133 -0.15703,-2.74808 -0.11778,-1.37404 -0.35333,-2.63031 -0.62813,-2.70883 -1.80588,-4.94655 -1.1385,-2.27699 -2.8266,-3.80806 -2.39476,-2.31625 -5.02507,-3.69029 -2.63031,-1.4133 -5.41766,-1.72737 l 0.0785,0 q -1.13849,-0.23555 -2.43402,-0.23555 -1.4133,0 -2.47327,0.35333 l -0.27481,0 q -6.20282,0.86368 -9.30423,7.0665 -0.54962,1.02072 -0.74591,2.08069 -0.15703,1.02072 -0.15703,1.96292 0,1.49182 0.43184,2.8266 0.4711,1.33479 1.45256,2.47328 1.64885,1.53108 3.2977,2.23773 1.68811,0.70665 3.41547,0.70665 1.49182,0 2.90512,-0.4711 0.78517,-0.31407 1.72737,-0.70665 0.98146,-0.43185 1.76663,-0.9422 0.15703,0.19629 0.2748,0.31406 0.11778,0.0785 0.1963,0.15704 0.0785,0.0785 0.15703,0.15703 0.0785,0.0785 0.19629,0.23555 0.43184,0.51036 0.90294,1.09923 -2.86586,2.0807 -6.51688,2.63031 -0.51036,0.11778 -0.86369,0.15704 -0.35332,0.0393 -0.74591,0.0393 -4.51471,0 -8.32277,-3.69028 l 0,0.0393 q -1.8844,-2.19847 -2.3555,-4.16139 -0.4711,-2.00217 -0.35332,-3.37622 0,-1.13849 0.27481,-2.31624 0.31406,-1.21701 0.82442,-2.70883 z" />
        <path
           id="path10286"
           style="font-style:normal;font-variant:normal;font-weight:200;font-stretch:normal;font-family:'Charukola Ultra Light';-inkscape-font-specification:'Charukola Ultra Light,  Ultra-Light'"
           d="m 351.22871,970.43165 q -1.05998,-0.9422 -2.74809,-1.60959 -1.68811,-0.70665 -3.69028,-0.94221 l 0.0392,0 q -0.58887,-0.0785 -1.217,-0.11777 -0.62814,-0.0393 -1.29553,-0.0393 -7.81241,0 -19.94324,6.3206 l 0,26.22458 q 1.72736,0.3141 2.78734,0.3533 1.05997,0.039 2.04143,0.039 3.57251,0 7.7339,-0.78519 4.20064,-0.78516 7.89093,-2.51253 4.55397,-1.76663 7.69464,-4.98581 3.17992,-3.25845 4.94655,-7.49835 0.66739,-1.80588 0.66739,-3.7688 0,-0.78517 -0.11778,-1.68811 -0.11777,-0.9422 -0.43184,-2.00218 -1.05997,-4.04361 -3.7688,-6.43837 l -0.58887,-0.54961 z m -28.85489,-26.7742 0,27.67714 q 12.32712,-5.84949 19.74695,-5.84949 1.84514,0 3.80806,0.35332 4.711,0.82443 7.89093,4.00435 1.09923,1.09924 2.27698,2.90512 1.17775,1.80588 1.84514,4.16139 l 0,-0.0393 q 0.27481,1.09923 0.35333,2.15921 0.11777,1.05997 0.11777,2.11995 0,1.13849 -0.19629,2.3555 -0.19629,1.21701 -0.58887,2.27698 l 0,-0.0393 q -1.8844,4.711 -5.33914,8.20499 -3.45473,3.494 -8.4798,5.49617 -7.89093,3.53323 -16.80258,3.53323 -3.72954,0 -6.20282,-0.7851 -0.19629,-0.039 -0.35332,-0.079 -0.15704,-0.039 -0.31407,-0.079 l -0.0393,0 0,-58.37715 -11.07085,0 0,-2.23773 58.92678,0 0,2.23773 -45.57894,0 z" />
        <path
           id="path10288"
           style="font-style:normal;font-variant:normal;font-weight:200;font-stretch:normal;font-family:'Charukola Ultra Light';-inkscape-font-specification:'Charukola Ultra Light,  Ultra-Light'"
           d="m 361.31809,941.41972 22.37726,0 0,2.23773 -10.05014,0 0,59.31935 -2.43401,0 0,-59.31935 -9.89311,0 0,-2.23773 z" />
        <path
           id="path10290"
           style="font-style:normal;font-variant:normal;font-weight:200;font-stretch:normal;font-family:'Charukola Ultra Light';-inkscape-font-specification:'Charukola Ultra Light,  Ultra-Light'"
           d="m 437.32227,941.41972 0,2.23773 -59.39789,0 0,-2.23773 59.39789,0 z m -13.66191,25.20387 q 0.19629,3.57251 -1.02072,6.90947 -1.217,3.2977 -3.69028,6.32059 -3.10141,3.45474 -8.00871,5.73172 -4.86803,2.23773 -11.50269,3.17993 l -4.711,0.51036 q 11.3064,4.31842 18.05884,7.22353 6.79169,2.86586 13.50487,6.04581 -0.11777,0.2355 -0.19629,0.3533 -0.0785,0.157 -0.11778,0.2356 -0.0393,0.078 -0.0785,0.157 -0.0393,0.1178 -0.15704,0.3141 -0.11777,0.2355 -0.2748,0.4711 -0.11778,0.2355 -0.23555,0.5103 -11.30641,-5.2606 -20.92471,-9.26496 -9.61829,-4.00435 -18.17661,-6.98798 0.15703,-0.51036 0.15703,-0.62814 0.0393,-0.15703 0.15703,-0.62813 0.0785,-0.31407 0.15704,-0.51036 0.0785,-0.23555 0.15703,-0.54962 2.15921,0.35333 4.08287,0.54962 1.96292,0.15703 4.04361,0.15703 3.7688,0 7.38057,-0.7459 3.61177,-0.74591 6.79169,-2.15921 l 0,0.0392 q 2.66957,-1.13849 4.75026,-2.51253 2.11996,-1.37404 3.494,-2.98363 4.12213,-4.75027 4.12213,-10.67828 0,-0.62813 -0.0393,-1.29552 -0.0393,-0.70665 -0.11778,-1.25627 -0.23555,-1.76663 -0.86368,-3.49399 -0.58888,-1.72737 -1.4133,-3.06215 -2.63031,-3.45474 -5.92801,-5.3784 -3.29771,-1.92366 -7.30206,-2.23773 -0.35332,-0.0393 -0.74591,-0.0393 -0.39258,0 -0.74591,0 -1.72736,0 -3.25844,0.23555 -1.49182,0.19629 -2.90512,0.74591 -3.2977,1.33478 -5.33913,3.57251 -2.04144,2.23772 -2.94438,5.06432 -0.31407,0.98146 -0.43184,1.8844 -0.11778,0.90295 -0.11778,1.80589 0,1.25627 0.23555,2.3555 2.35551,6.28134 7.65538,7.38057 1.09924,0.27481 2.70883,0.27481 1.68811,0 3.41548,-0.4711 1.60959,-0.66739 2.55179,-1.57034 0.9422,-0.90294 1.29552,-1.96291 0.11778,-0.39259 0.15704,-0.74591 0.0393,-0.39259 0.0393,-0.70665 0,-1.72737 -1.09924,-3.2977 l 0,0.0393 q -1.21701,-1.68811 -3.37622,-1.68811 -0.4711,0 -0.98145,0.0785 -0.51036,0.0785 -1.17776,0.27481 -0.31406,-0.74591 -0.51035,-1.17775 -0.15704,-0.43184 -0.43185,-0.9422 1.05998,-0.39258 1.72737,-0.4711 0.70665,-0.11778 1.49182,-0.11778 3.06215,0 5.02507,2.70883 l 0,-0.0393 q 1.60959,2.19847 1.60959,4.51471 0,1.13849 -0.35332,2.11995 -0.82443,3.17993 -5.3784,5.14285 -0.0393,0.0393 -0.11777,0.0785 -0.0785,0.0393 -0.11778,0.0785 -0.90294,0.27481 -1.84514,0.39258 -0.9422,0.11778 -1.96292,0.11778 -1.09923,0 -2.27698,-0.19629 -1.17775,-0.23555 -2.19847,-0.58888 -2.59105,-1.02071 -4.711,-3.14067 -2.0807,-2.11995 -3.10141,-5.10358 l -0.11778,-0.15704 q -0.19629,-0.82442 -0.31407,-1.57033 -0.0785,-0.78517 -0.0785,-1.60959 0,-2.70883 1.13849,-5.57469 1.13849,-2.94437 3.41548,-5.10358 2.27698,-2.19847 5.77097,-3.69029 l -0.0392,0 q 3.17992,-1.17775 6.67392,-1.17775 1.8844,0 4.00435,0.35333 l -0.0393,0 q 7.65538,1.217 12.99452,8.28351 2.47327,3.96509 2.70882,9.30423 z m 0.39259,-24.37944 q 0.9422,-3.2977 1.25626,-5.22136 0.31407,-1.96292 0.31407,-3.53325 0,-2.15921 -0.51036,-4.20065 -0.4711,-2.04143 -1.49182,-3.84732 -1.84514,-3.02289 -5.33913,-5.06432 -3.494,-2.04144 -8.04797,-2.94438 -1.33478,-0.19629 -2.66956,-0.31407 -1.33479,-0.15703 -2.70883,-0.15703 -5.49617,0.31407 -10.44272,2.27699 -4.94655,1.92365 -9.65756,5.49616 l -0.23555,-0.23555 -1.17775,-1.45255 q 4.47545,-3.25845 10.48198,-5.73172 6.00653,-2.51254 12.4449,-2.39476 1.09923,0 2.11995,0.11777 1.05998,0.0785 2.11995,0.27481 5.41766,0.9422 9.18646,3.2977 3.80806,2.31624 5.92801,5.8495 1.13849,1.96291 1.64885,4.2399 0.54962,2.23772 0.54962,4.67174 0,1.49182 -0.27481,3.45474 -0.23555,1.96292 -1.17775,5.41765 l -2.31624,0 z" />
        <path
           id="path10292"
           style="font-style:normal;font-variant:normal;font-weight:200;font-stretch:normal;font-family:'Charukola Ultra Light';-inkscape-font-specification:'Charukola Ultra Light,  Ultra-Light'"
           d="m 453.65376,995.91032 q 2.19847,1.53108 2.90512,4.43618 0.11778,0.9815 0.11778,1.6489 0,1.374 -0.58888,2.591 -0.58888,1.217 -1.64885,2.277 l 0.0785,0 q -3.25845,2.9051 -7.2628,2.9051 -0.90294,0 -1.37404,-0.1178 l 0.58887,-2.0414 0.70665,0 q 0.4711,0 0.9422,-0.039 0.51036,-0.039 1.29553,-0.2749 0.82443,-0.1963 1.72737,-0.6674 0.9422,-0.4711 1.72737,-1.1777 2.19846,-2.1592 1.53107,-4.711 -0.43184,-2.0807 -1.96292,-3.06215 -1.33478,-0.90295 -3.10141,-0.39259 -1.33478,0.54962 -1.53107,1.17775 -0.54962,1.09924 0.23555,2.00219 l 0.0785,2.434 q -1.02071,-0.3141 -1.60959,-0.8637 -0.54961,-0.5103 -0.82442,-1.217 -0.27481,-0.7459 -0.27481,-1.41329 0,-0.90294 0.35332,-1.72736 1.1385,-2.04144 3.37622,-2.5518 0.78517,-0.11777 1.33479,-0.11777 0.86368,0 1.64885,0.19629 0.78516,0.19629 1.53107,0.70665 z" />
        <path
           id="path10294"
           style="font-style:normal;font-variant:normal;font-weight:200;font-stretch:normal;font-family:'Charukola Ultra Light';-inkscape-font-specification:'Charukola Ultra Light,  Ultra-Light'"
           d="m 491.38103,941.41972 74.82642,0 0,2.23773 -74.82642,0 0,-2.23773 z m 29.48302,19.78621 q 3.57251,-7.02724 11.14938,-8.32277 1.05997,-0.2748 3.2977,-0.31406 2.23772,-0.0785 5.88875,0.9422 3.69029,0.98146 8.59758,5.29988 2.04143,2.27698 3.21918,4.711 1.21701,2.43402 1.80589,4.90729 0.35332,1.64885 0.54962,3.2977 0.19629,1.64885 0.19629,3.14067 0,1.57034 -0.19629,3.25845 -0.15704,1.6881 -0.54962,3.45473 -0.43184,2.00218 -1.53108,4.31842 -1.05997,2.27698 -2.70882,4.27916 l 0,-0.0393 q -3.45474,4.08287 -8.44055,6.3206 -4.98581,2.19846 -11.46344,2.19846 l -0.39258,0 q -3.33696,0 -6.90947,-1.05997 -3.57251,-1.09924 -7.06651,-3.14067 l 0,0.0393 q -6.24207,-3.80806 -10.59975,-10.0894 -4.35768,-6.32059 -6.67392,-15.31076 0.27481,-0.0393 0.43184,-0.0785 0.15703,-0.0785 0.27481,-0.0785 0.11777,-0.0393 0.23555,-0.0785 0.11777,-0.0393 0.31407,-0.11777 l -0.0393,0 q 0.66739,-0.15703 1.25627,-0.27481 4.35767,17.23442 16.44925,24.2224 3.2977,1.84515 6.32059,2.70883 3.02289,0.82443 6.08505,0.70665 5.96726,0 10.3642,-1.76662 4.39694,-1.76663 7.57686,-5.33914 1.64885,-1.96292 2.66957,-3.92584 1.05998,-1.96291 1.45256,-3.84731 0.31407,-1.53108 0.4711,-3.14067 0.19629,-1.6096 0.19629,-3.25845 0,-1.4133 -0.15703,-2.74808 -0.11778,-1.37404 -0.35333,-2.63031 -0.62813,-2.70883 -1.80588,-4.94655 -1.13849,-2.27699 -2.8266,-3.80806 -2.39476,-2.31625 -5.02507,-3.69029 -2.63031,-1.4133 -5.41765,-1.72737 l 0.0785,0 q -1.13849,-0.23555 -2.43402,-0.23555 -1.4133,0 -2.47327,0.35333 l -0.27481,0 q -6.20282,0.86368 -9.30423,7.0665 -0.54962,1.02072 -0.74591,2.08069 -0.15703,1.02072 -0.15703,1.96292 0,1.49182 0.43184,2.8266 0.4711,1.33479 1.45256,2.47328 1.64885,1.53108 3.2977,2.23773 1.68811,0.70665 3.41548,0.70665 1.49181,0 2.90512,-0.4711 0.78516,-0.31407 1.72736,-0.70665 0.98146,-0.43185 1.76663,-0.9422 0.15703,0.19629 0.27481,0.31406 0.11777,0.0785 0.19629,0.15704 0.0785,0.0785 0.15703,0.15703 0.0785,0.0785 0.19629,0.23555 0.43185,0.51036 0.90295,1.09923 -2.86586,2.0807 -6.51689,2.63031 -0.51036,0.11778 -0.86368,0.15704 -0.35333,0.0393 -0.74591,0.0393 -4.51471,0 -8.32277,-3.69028 l 0,0.0393 q -1.8844,-2.19847 -2.35551,-4.16139 -0.4711,-2.00217 -0.35332,-3.37622 0,-1.13849 0.27481,-2.31624 0.31406,-1.21701 0.82442,-2.70883 z" />
        <path
           id="path10296"
           style="font-style:normal;font-variant:normal;font-weight:200;font-stretch:normal;font-family:'Charukola Ultra Light';-inkscape-font-specification:'Charukola Ultra Light,  Ultra-Light'"
           d="m 559.65131,941.41972 22.37726,0 0,2.23773 -10.05013,0 0,59.31935 -2.43402,0 0,-59.31935 -9.89311,0 0,-2.23773 z" />
        <path
           id="path10298"
           style="font-style:normal;font-variant:normal;font-weight:200;font-stretch:normal;font-family:'Charukola Ultra Light';-inkscape-font-specification:'Charukola Ultra Light,  Ultra-Light'"
           d="m 635.65549,941.41972 0,2.23773 -59.39789,0 0,-2.23773 59.39789,0 z m -13.66191,25.20387 q 0.19629,3.57251 -1.02071,6.90947 -1.21701,3.2977 -3.69029,6.32059 -3.10141,3.45474 -8.0087,5.73172 -4.86804,2.23773 -11.5027,3.17993 l -4.711,0.51036 q 11.3064,4.31842 18.05884,7.22353 6.79169,2.86586 13.50487,6.04581 -0.11777,0.2355 -0.19629,0.3533 -0.0785,0.157 -0.11777,0.2356 -0.0393,0.078 -0.0785,0.157 -0.0393,0.1178 -0.15703,0.3141 -0.11778,0.2355 -0.27481,0.4711 -0.11778,0.2355 -0.23555,0.5103 -11.30641,-5.2606 -20.92471,-9.26496 -9.61829,-4.00435 -18.17661,-6.98798 0.15703,-0.51036 0.15703,-0.62814 0.0393,-0.15703 0.15703,-0.62813 0.0785,-0.31407 0.15704,-0.51036 0.0785,-0.23555 0.15703,-0.54962 2.15921,0.35333 4.08287,0.54962 1.96292,0.15703 4.04361,0.15703 3.7688,0 7.38057,-0.7459 3.61177,-0.74591 6.7917,-2.15921 l 0,0.0392 q 2.66956,-1.13849 4.75026,-2.51253 2.11995,-1.37404 3.49399,-2.98363 4.12213,-4.75027 4.12213,-10.67828 0,-0.62813 -0.0393,-1.29552 -0.0393,-0.70665 -0.11778,-1.25627 -0.23555,-1.76663 -0.86368,-3.49399 -0.58888,-1.72737 -1.4133,-3.06215 -2.63031,-3.45474 -5.92801,-5.3784 -3.2977,-1.92366 -7.30206,-2.23773 -0.35332,-0.0393 -0.7459,-0.0393 -0.39259,0 -0.74591,0 -1.72737,0 -3.25845,0.23555 -1.49181,0.19629 -2.90512,0.74591 -3.2977,1.33478 -5.33913,3.57251 -2.04144,2.23772 -2.94438,5.06432 -0.31406,0.98146 -0.43184,1.8844 -0.11777,0.90295 -0.11777,1.80589 0,1.25627 0.23555,2.3555 2.3555,6.28134 7.65537,7.38057 1.09924,0.27481 2.70883,0.27481 1.68811,0 3.41548,-0.4711 1.60959,-0.66739 2.55179,-1.57034 0.9422,-0.90294 1.29553,-1.96291 0.11777,-0.39259 0.15703,-0.74591 0.0393,-0.39259 0.0393,-0.70665 0,-1.72737 -1.09924,-3.2977 l 0,0.0393 q -1.217,-1.68811 -3.37621,-1.68811 -0.4711,0 -0.98146,0.0785 -0.51036,0.0785 -1.17775,0.27481 -0.31407,-0.74591 -0.51036,-1.17775 -0.15704,-0.43184 -0.43184,-0.9422 1.05997,-0.39258 1.72736,-0.4711 0.70665,-0.11778 1.49182,-0.11778 3.06215,0 5.02507,2.70883 l 0,-0.0393 q 1.60959,2.19847 1.60959,4.51471 0,1.13849 -0.35332,2.11995 -0.82443,3.17993 -5.3784,5.14285 -0.0393,0.0393 -0.11777,0.0785 -0.0785,0.0393 -0.11778,0.0785 -0.90294,0.27481 -1.84514,0.39258 -0.9422,0.11778 -1.96292,0.11778 -1.09923,0 -2.27698,-0.19629 -1.17775,-0.23555 -2.19847,-0.58888 -2.59105,-1.02071 -4.711,-3.14067 -2.0807,-2.11995 -3.10141,-5.10358 l -0.11778,-0.15704 q -0.19629,-0.82442 -0.31406,-1.57033 -0.0785,-0.78517 -0.0785,-1.60959 0,-2.70883 1.13849,-5.57469 1.13849,-2.94437 3.41548,-5.10358 2.27698,-2.19847 5.77098,-3.69029 l -0.0393,0 q 3.17992,-1.17775 6.67392,-1.17775 1.8844,0 4.00435,0.35333 l -0.0393,0 q 7.65538,1.217 12.99452,8.28351 2.47327,3.96509 2.70882,9.30423 z m 0.39259,-24.37944 q 0.9422,-3.2977 1.25626,-5.22136 0.31407,-1.96292 0.31407,-3.53325 0,-2.15921 -0.51036,-4.20065 -0.4711,-2.04143 -1.49182,-3.84732 -1.84514,-3.02289 -5.33913,-5.06432 -3.49399,-2.04144 -8.04796,-2.94438 -1.33479,-0.19629 -2.66957,-0.31407 -1.33479,-0.15703 -2.70883,-0.15703 -5.49617,0.31407 -10.44272,2.27699 -4.94655,1.92365 -9.65756,5.49616 l -0.23555,-0.23555 -1.17775,-1.45255 q 4.47546,-3.25845 10.48198,-5.73172 6.00653,-2.51254 12.4449,-2.39476 1.09924,0 2.11995,0.11777 1.05998,0.0785 2.11995,0.27481 5.41766,0.9422 9.18646,3.2977 3.80806,2.31624 5.92801,5.8495 1.13849,1.96291 1.64885,4.2399 0.54962,2.23772 0.54962,4.67174 0,1.49182 -0.27481,3.45474 -0.23555,1.96292 -1.17775,5.41765 l -2.31624,0 z" />
        <path
           id="path10300"
           style="font-style:normal;font-variant:normal;font-weight:200;font-stretch:normal;font-family:'Charukola Ultra Light';-inkscape-font-specification:'Charukola Ultra Light,  Ultra-Light'"
           d="m 684.92469,941.41972 11.93454,0 0,2.23773 -9.85385,0 q -4.08287,1.92366 -7.69464,4.78952 -3.57251,2.8266 -6.32059,6.43837 -3.69029,4.78952 -5.57469,10.52124 -1.84514,5.69246 -1.84514,12.28786 0,2.15921 0.15703,4.67175 0.19629,2.47327 0.90295,4.67174 1.02071,4.51471 2.98363,7.57686 2.00218,3.0229 4.82878,4.86804 1.37404,0.86367 2.8266,1.25627 1.45256,0.3926 2.98363,0.3926 0.78517,0 1.57034,-0.039 0.78516,-0.078 1.60959,-0.314 1.21701,-0.4319 2.08069,-1.37409 0.90295,-0.98146 1.09924,-2.47327 0.11777,-0.35333 0.11777,-1.53108 0,-1.53108 -0.78517,-3.14067 -1.49181,-2.3555 -4.711,-2.3555 l -0.31406,0 q -0.39259,-2.3555 -0.39259,-2.47328 0.82443,-0.0393 1.05998,-0.0393 4.43619,0 6.47763,3.72954 0.66739,1.05998 0.90294,2.19847 0.27481,1.09923 0.27481,2.31624 0,0.70665 -0.11778,1.68811 l 0,-0.0393 q -0.86368,4.94654 -5.29988,5.88874 -2.08069,0.4711 -3.69028,0.4711 -3.88658,0 -6.98799,-2.1199 -3.45473,-2.11999 -5.6532,-5.57472 -2.19847,-3.45474 -3.21919,-8.47981 l 0,0.0393 q -0.82442,-2.55179 -1.02071,-5.1821 -0.15704,-2.66957 -0.15704,-4.78952 0,-6.47763 1.72737,-12.17009 1.76663,-5.69246 5.22136,-10.59976 1.84514,-2.47327 4.47545,-5.22136 2.63031,-2.78734 7.10577,-5.88875 l 3.2977,-2.23773 z" />
        <path
           id="path10302"
           style="font-style:normal;font-variant:normal;font-weight:200;font-stretch:normal;font-family:'Charukola Ultra Light';-inkscape-font-specification:'Charukola Ultra Light,  Ultra-Light'"
           d="m 697.21259,953.9824 q 0.43184,0 0.9422,0.0393 0.51036,0.0393 1.02072,0.15703 l -1.45256,2.08069 q -0.62814,-0.11777 -1.25627,0 -0.58887,0.11778 -1.17775,0.39259 -1.25627,0.51035 -2.08069,1.57033 -0.82443,1.02072 -1.05998,2.66957 -0.27481,3.21918 1.80589,5.37839 3.25844,2.70883 6.04578,2.15921 4.31842,-0.98146 5.96727,-4.20064 0.51036,-1.13849 0.78517,-2.23773 0.31407,-1.09923 0.31407,-2.31624 0,-2.27699 -1.02072,-5.02507 -1.53108,-3.61177 -3.72954,-6.04579 -2.15921,-2.47327 -5.41766,-3.65102 -3.21918,-1.21701 -7.38057,-1.37405 l -0.27481,0 0,-2.15921 q 6.71318,0.11778 11.42418,2.74809 4.71101,2.63031 7.41983,8.87239 4.67175,-7.96945 11.5027,-7.96945 l 0.39258,0 q 8.55833,0.54962 15.07521,10.95308 l 0,-17.27367 2.51254,0 0,2.66956 11.58121,0 0,2.23773 -11.58121,0 0,59.31935 -2.51254,0 0,-40.47534 q -0.70665,-2.15921 -1.76662,-4.2399 -1.02072,-2.11995 -2.27699,-3.9651 -2.27698,-3.2977 -5.14284,-5.10358 -2.8266,-1.84514 -6.00653,-1.84514 -3.53325,0 -6.00653,1.96291 -2.43402,1.92366 -3.80806,5.33914 -0.4711,1.29553 -0.74591,2.63031 -0.27481,1.29553 -0.27481,2.43402 0,1.13849 0.31407,2.3555 0.31407,1.17775 0.78517,2.19847 0.78516,1.49181 2.31624,2.55179 1.57033,1.05997 3.7688,1.72737 1.60959,0.0393 2.98364,-0.43184 1.4133,-0.51036 2.66957,-1.64886 2.55179,-2.31624 2.08069,-5.61394 -0.27481,-1.53108 -1.13849,-2.59105 -0.82443,-1.09924 -2.04144,-1.60959 -1.21701,-0.51036 -2.51253,-0.39259 -0.51036,-0.66739 -0.78517,-1.02071 -0.27481,-0.35333 -0.70665,-0.94221 0.0393,0 0.0785,-0.0393 l 0.11777,-0.0785 q 0.51036,-0.15703 0.9422,-0.15703 0.4711,-0.0393 0.98146,-0.0393 1.37404,0 2.98364,0.58887 l 0,-0.0393 q 3.41547,1.53108 4.12212,4.9073 0.19629,0.58887 0.23555,1.13849 0.0785,0.51036 0.0785,0.98146 0,1.33478 -0.70665,3.02289 -0.82443,2.0807 -2.39476,3.53326 -2.63031,2.66956 -6.43837,2.66956 -0.90294,0 -1.37404,-0.11777 -4.04361,-0.98146 -7.34132,-5.33914 -3.45473,4.35768 -7.69463,5.41765 -0.0785,0.0393 -0.35333,0.0393 -0.27481,0 -0.66739,0 -1.76663,0 -3.41548,-0.70665 -1.64885,-0.70665 -3.10141,-1.96291 -0.70665,-0.6674 -1.29552,-1.57034 -0.58888,-0.90294 -1.02072,-1.96292 l 0,0.0393 q -0.31407,-0.86368 -0.51036,-1.60959 -0.19629,-0.78517 -0.19629,-1.45256 0,-0.43184 0.0393,-0.86368 0.0785,-0.4711 0.31407,-1.02072 0.58887,-3.57251 4.08286,-5.14285 l 0,0.0393 q 1.57034,-0.58887 2.98364,-0.58887 z" />
        <path
           id="path10304"
           style="font-style:normal;font-variant:normal;font-weight:200;font-stretch:normal;font-family:'Charukola Ultra Light';-inkscape-font-specification:'Charukola Ultra Light,  Ultra-Light'"
           d="m 792.4141,941.41972 11.93454,0 0,2.23773 -11.93454,0 0,59.31935 -2.43402,0 0,-0.2748 q -5.92801,-1.1777 -12.36638,-4.0436 -6.43837,-2.86586 -13.46561,-7.10576 l 0.0393,0 q -4.35768,-2.74808 -7.85168,-5.41765 -3.45473,-2.70883 -5.61394,-5.10359 l 23.12317,-19.43288 q 0.19629,-1.05998 0.27481,-2.08069 0.11777,-1.02072 0.11777,-1.96292 -0.15703,-6.39911 -4.98581,-12.64119 0.0393,3.7688 -1.13849,6.55614 -1.13849,2.78735 -2.94438,4.35768 -3.57251,2.90512 -8.24425,2.90512 -0.0393,0 -0.74591,-0.0393 -4.711,-0.39258 -6.87021,-4.27916 -0.74591,-1.37404 -0.74591,-3.02289 -0.0785,-1.09924 0.51036,-2.8266 0.62813,-1.72737 2.11995,-2.82661 1.49182,-1.09923 3.25844,-1.17775 3.06216,-0.0393 4.16139,1.21701 l 0.0393,0.0393 q 1.29552,1.49182 1.57033,2.8266 -0.19629,0 -2.55179,0 -0.23555,-0.39258 -0.62813,-0.86368 -0.39259,-0.35333 -0.94221,-0.51036 -0.51035,-0.19629 -1.72736,-0.19629 -2.0807,0.27481 -2.8266,1.84514 -0.70665,1.57033 -0.54962,2.47328 0,0.43184 0.11777,0.90294 0.15704,0.43184 0.35333,0.78517 0.78517,1.49181 2.00218,2.19846 1.25626,0.70665 2.78734,0.82443 2.00217,0.11777 3.88658,-0.39258 1.8844,-0.54962 3.2977,-1.72737 3.41547,-2.98364 3.2977,-8.6761 0,-2.15921 -0.23555,-3.80806 0.19629,-0.0393 0.31407,-0.0785 0.11777,-0.0393 0.15703,-0.0785 0.0785,-0.0393 0.15703,-0.0393 0.11778,-0.0393 0.31407,-0.11778 0.27481,-0.0785 0.4711,-0.15703 0.23555,-0.0785 0.4711,-0.15703 0.19629,0.11777 0.27481,0.19629 0.0785,0.0785 0.27481,0.23555 0.0393,0.0393 0.0785,0.0785 0.0393,0 0.11778,0.0785 3.61177,3.57251 5.53543,7.85167 1.96291,4.27916 1.96291,8.99017 0,2.19846 -0.39258,4.43619 l -0.54962,0.58888 -21.3958,17.78403 q 2.78734,2.43402 5.53543,4.43619 2.74808,1.96292 5.53543,3.76881 12.44489,7.65537 24.61498,10.63901 l 0,-61.20377 2.43402,0 0,2.66956 z" />
        <path
           id="path10306"
           style="font-style:normal;font-variant:normal;font-weight:200;font-stretch:normal;font-family:'Charukola Ultra Light';-inkscape-font-specification:'Charukola Ultra Light,  Ultra-Light'"
           d="m 798.34211,941.41972 22.37726,0 0,2.23773 -10.05014,0 0,59.31935 -2.43402,0 0,-59.31935 -9.8931,0 0,-2.23773 z" />
        <path
           id="path10308"
           style="font-style:normal;font-variant:normal;font-weight:200;font-stretch:normal;font-family:'Charukola Ultra Light';-inkscape-font-specification:'Charukola Ultra Light,  Ultra-Light'"
           d="m 874.34629,941.41972 0,2.23773 -59.39789,0 0,-2.23773 59.39789,0 z m -13.66191,25.20387 q 0.19629,3.57251 -1.02072,6.90947 -1.21701,3.2977 -3.69028,6.32059 -3.10141,3.45474 -8.00871,5.73172 -4.86803,2.23773 -11.5027,3.17993 l -4.711,0.51036 q 11.30641,4.31842 18.05884,7.22353 6.7917,2.86586 13.50488,6.04581 -0.11778,0.2355 -0.19629,0.3533 -0.0785,0.157 -0.11778,0.2356 -0.0393,0.078 -0.0785,0.157 -0.0393,0.1178 -0.15703,0.3141 -0.11777,0.2355 -0.27481,0.4711 -0.11777,0.2355 -0.23555,0.5103 -11.3064,-5.2606 -20.9247,-9.26496 -9.6183,-4.00435 -18.17662,-6.98798 0.15704,-0.51036 0.15704,-0.62814 0.0393,-0.15703 0.15703,-0.62813 0.0785,-0.31407 0.15703,-0.51036 0.0785,-0.23555 0.15704,-0.54962 2.15921,0.35333 4.08287,0.54962 1.96291,0.15703 4.04361,0.15703 3.7688,0 7.38057,-0.7459 3.61176,-0.74591 6.79169,-2.15921 l 0,0.0392 q 2.66957,-1.13849 4.75026,-2.51253 2.11995,-1.37404 3.494,-2.98363 4.12212,-4.75027 4.12212,-10.67828 0,-0.62813 -0.0393,-1.29552 -0.0392,-0.70665 -0.11777,-1.25627 -0.23555,-1.76663 -0.86368,-3.49399 -0.58888,-1.72737 -1.41331,-3.06215 -2.6303,-3.45474 -5.92801,-5.3784 -3.2977,-1.92366 -7.30205,-2.23773 -0.35333,-0.0393 -0.74591,-0.0393 -0.39258,0 -0.74591,0 -1.72737,0 -3.25844,0.23555 -1.49182,0.19629 -2.90512,0.74591 -3.2977,1.33478 -5.33914,3.57251 -2.04143,2.23772 -2.94437,5.06432 -0.31407,0.98146 -0.43184,1.8844 -0.11778,0.90295 -0.11778,1.80589 0,1.25627 0.23555,2.3555 2.3555,6.28134 7.65538,7.38057 1.09923,0.27481 2.70883,0.27481 1.68811,0 3.41547,-0.4711 1.6096,-0.66739 2.5518,-1.57034 0.9422,-0.90294 1.29552,-1.96291 0.11778,-0.39259 0.15704,-0.74591 0.0392,-0.39259 0.0392,-0.70665 0,-1.72737 -1.09923,-3.2977 l 0,0.0393 q -1.21701,-1.68811 -3.37622,-1.68811 -0.4711,0 -0.98146,0.0785 -0.51036,0.0785 -1.17775,0.27481 -0.31406,-0.74591 -0.51036,-1.17775 -0.15703,-0.43184 -0.43184,-0.9422 1.05998,-0.39258 1.72737,-0.4711 0.70665,-0.11778 1.49182,-0.11778 3.06215,0 5.02507,2.70883 l 0,-0.0393 q 1.60959,2.19847 1.60959,4.51471 0,1.13849 -0.35333,2.11995 -0.82442,3.17993 -5.37839,5.14285 -0.0393,0.0393 -0.11778,0.0785 -0.0785,0.0393 -0.11777,0.0785 -0.90294,0.27481 -1.84514,0.39258 -0.9422,0.11778 -1.96292,0.11778 -1.09924,0 -2.27699,-0.19629 -1.17775,-0.23555 -2.19846,-0.58888 -2.59106,-1.02071 -4.71101,-3.14067 -2.08069,-2.11995 -3.10141,-5.10358 l -0.11777,-0.15704 q -0.19629,-0.82442 -0.31407,-1.57033 -0.0785,-0.78517 -0.0785,-1.60959 0,-2.70883 1.13849,-5.57469 1.13849,-2.94437 3.41547,-5.10358 2.27699,-2.19847 5.77098,-3.69029 l -0.0393,0 q 3.17993,-1.17775 6.67392,-1.17775 1.8844,0 4.00436,0.35333 l -0.0393,0 q 7.65538,1.217 12.99451,8.28351 2.47328,3.96509 2.70883,9.30423 z m 0.39258,-24.37944 q 0.9422,-3.2977 1.25627,-5.22136 0.31407,-1.96292 0.31407,-3.53325 0,-2.15921 -0.51036,-4.20065 -0.4711,-2.04143 -1.49182,-3.84732 -1.84514,-3.02289 -5.33914,-5.06432 -3.49399,-2.04144 -8.04796,-2.94438 -1.33478,-0.19629 -2.66957,-0.31407 -1.33478,-0.15703 -2.70882,-0.15703 -5.49617,0.31407 -10.44272,2.27699 -4.94656,1.92365 -9.65756,5.49616 l -0.23555,-0.23555 -1.17775,-1.45255 q 4.47545,-3.25845 10.48198,-5.73172 6.00653,-2.51254 12.4449,-2.39476 1.09923,0 2.11995,0.11777 1.05997,0.0785 2.11995,0.27481 5.41765,0.9422 9.18646,3.2977 3.80806,2.31624 5.92801,5.8495 1.13849,1.96291 1.64885,4.2399 0.54961,2.23772 0.54961,4.67174 0,1.49182 -0.2748,3.45474 -0.23555,1.96292 -1.17775,5.41765 l -2.31625,0 z" />
        <path
           id="path10310"
           style="font-style:normal;font-variant:normal;font-weight:200;font-stretch:normal;font-family:'Charukola Ultra Light';-inkscape-font-specification:'Charukola Ultra Light,  Ultra-Light'"
           d="m 913.44757,950.99876 q 1.84514,0 2.98363,1.17775 1.1385,1.1385 1.1385,2.98364 0,1.84514 -1.1385,2.98363 -1.13849,1.1385 -2.98363,1.1385 -1.80588,0 -2.94438,-1.1385 -1.13849,-1.13849 -1.13849,-2.98363 0,-1.8844 1.13849,-3.02289 1.1385,-1.1385 2.94438,-1.1385 z m -0.0393,33.60515 q 1.8844,0 3.02289,1.17775 1.1385,1.1385 1.1385,2.98364 0,1.84514 -1.1385,2.98363 -1.13849,1.1385 -3.02289,1.1385 -1.76662,0 -2.90512,-1.1385 -1.13849,-1.13849 -1.13849,-2.98363 0,-1.8844 1.13849,-3.02289 1.1385,-1.1385 2.90512,-1.1385 z" />
        <path
           id="path10312"
           style="font-style:normal;font-variant:normal;font-weight:200;font-stretch:normal;font-family:'Charukola Ultra Light';-inkscape-font-specification:'Charukola Ultra Light,  Ultra-Light'"
           d="m 948.78011,959.28228 q -1.84515,-5.69247 -4.55397,-10.44273 -2.70883,-4.78952 -6.35986,-8.63683 l 2.04144,-2.04144 q 1.72737,1.8844 3.45473,4.20065 1.72737,2.31624 3.2977,5.02506 3.69029,6.16357 5.53543,12.36639 1.84515,6.16356 1.84515,12.40564 0,8.63683 -3.494,16.4885 -3.49399,7.85167 -10.63901,15.23228 -0.4711,-0.5104 -1.02072,-1.06 -0.54962,-0.5496 -1.02072,-1.0207 13.11229,-13.77971 13.11229,-29.44379 0,-3.21919 -0.54961,-6.43837 -0.51036,-3.21919 -1.64885,-6.63466 z" />
      </g>
    </g>
    <path
       style="fill:#008000;fill-opacity:1;stroke:#000000;stroke-width:1.26269066;stroke-miterlimit:4;stroke-dasharray:none;stroke-opacity:1"
       d="m 104.09377,711.82516 c 0,-0.0735 0.51993,-1.30081 1.15539,-2.72733 2.69036,-6.03944 4.50341,-12.80363 4.81725,-17.97238 0.18693,-3.07866 -0.2444,-6.83281 -0.88651,-7.71595 -0.91966,-1.26487 -6.0821,-4.23072 -10.133069,-5.8215 -4.84994,-1.90453 -13.321715,-3.2758 -22.797535,-3.69008 l -3.979619,-0.17399 0.91241,-1.66637 c 2.633881,-4.81035 5.955155,-9.17686 9.613959,-12.63954 3.810907,-3.60664 8.391948,-6.35878 13.090139,-7.86414 1.684752,-0.53982 1.900096,-0.55186 4.590645,-0.25673 11.94816,1.31061 23.97847,7.03639 36.06809,17.16649 2.57544,2.158 10.98541,10.44208 10.98541,10.82096 0,0.13663 -0.99437,0.90796 -2.20971,1.71406 -8.53485,5.66091 -21.78048,15.55173 -35.66454,26.63155 -5.09859,4.0688 -5.56231,4.41852 -5.56231,4.19495 z"
       id="path10383"
       inkscape:connector-curvature="0"
       transform="translate(0,52.362161)" />
    <path
       style="fill:#008000;fill-opacity:1;stroke:#000000;stroke-width:1.26269066;stroke-miterlimit:4;stroke-dasharray:none;stroke-opacity:1"
       d="m 268.62237,735.02489 c -7.22393,-5.90868 -16.21721,-10.29513 -24.74874,-12.07113 -6.17311,-1.28505 -13.56804,-1.48373 -19.78838,-0.53164 -1.43869,0.2202 -2.6592,0.35697 -2.71224,0.30392 -0.053,-0.053 0.81959,-1.16772 1.9392,-2.47706 8.61386,-10.07358 14.03238,-19.82435 16.18432,-29.12409 0.75586,-3.26652 0.92682,-9.17799 0.34847,-12.05013 -1.58109,-7.85195 -5.86038,-14.85429 -13.9879,-22.88884 l -3.64031,-3.59866 23.98659,0 23.9866,0 0.17325,4.48255 c 0.60504,15.65468 0.81623,50.35051 0.43346,71.21321 l -0.15402,8.39435 -2.0203,-1.65248 z"
       id="path10385"
       inkscape:connector-curvature="0"
       transform="translate(0,52.362161)" />
    <path
       style="fill:#008000;fill-opacity:1;stroke:#000000;stroke-width:1.26269066;stroke-miterlimit:4;stroke-dasharray:none;stroke-opacity:1"
       d="m 423.17571,703.32662 c -7.49163,-4.93092 -19.56451,-7.43138 -36.80726,-7.62329 -2.882,-0.0321 -5.24008,-0.0795 -5.24017,-0.10546 -9e-5,-0.0259 2.21355,-3.7525 4.9192,-8.28127 7.73675,-12.94986 15.43385,-24.28814 22.58922,-33.27518 l 1.15449,-1.45003 6.88959,-0.002 c 5.29023,-0.002 6.91334,0.0712 6.99189,0.31361 0.0563,0.17362 0.28315,3.423 0.50418,7.22084 0.56534,9.71408 0.8882,26.75802 0.68571,36.1989 l -0.17162,8.00126 -1.51523,-0.99731 z"
       id="path10387"
       inkscape:connector-curvature="0"
       transform="translate(0,52.362161)" />
    <path
       style="fill:#008000;fill-opacity:1;stroke:#000000;stroke-width:1.26269066;stroke-miterlimit:4;stroke-dasharray:none;stroke-opacity:1"
       d="m 647.55585,682.87878 c -10.66581,-4.09865 -23.19528,-6.52888 -35.95458,-6.97379 l -4.76612,-0.1662 -0.51931,-1.28484 c -1.0406,-2.57457 -4.14502,-8.41791 -5.78095,-10.88128 -2.08457,-3.13894 -4.92532,-6.69412 -7.29329,-9.12751 l -1.80796,-1.8579 29.82887,0 29.82887,0 5.1e-4,8.7757 c 2.5e-4,4.82663 0.0754,11.92927 0.16688,15.78363 0.14128,5.95037 0.11262,7.0032 -0.1899,6.97659 -0.19597,-0.0172 -1.77682,-0.57722 -3.51302,-1.2444 z"
       id="path10389"
       inkscape:connector-curvature="0"
       transform="translate(0,52.362161)" />
    <path
       style="fill:#008000;fill-opacity:1;stroke:#000000;stroke-width:1.26269066;stroke-miterlimit:4;stroke-dasharray:none;stroke-opacity:1"
       d="m 720.53937,726.43968 c -1.8886,-1.96065 -5.72273,-5.31514 -8.17094,-7.14876 -8.12229,-6.08332 -17.01994,-9.79262 -26.49117,-11.04377 -2.42235,-0.31999 -4.29608,-0.37644 -8.64818,-0.26055 -3.05571,0.0814 -6.12405,0.25181 -6.81853,0.37876 -0.69448,0.12695 -1.28774,0.20858 -1.31835,0.18139 -0.0806,-0.0716 7.92479,-11.38849 13.05672,-18.45758 6.17036,-8.49951 15.19879,-20.60561 22.17665,-29.73637 l 5.93454,-7.76554 6.56988,0 6.56988,0 -0.16805,13.06884 c -0.0924,7.18787 -0.27742,16.98951 -0.4111,21.78142 -0.13367,4.79191 -0.42149,15.5311 -0.63959,23.86485 -0.2181,8.33376 -0.42102,15.41437 -0.45094,15.73469 -0.05,0.53503 -0.14683,0.48644 -1.19082,-0.59738 z"
       id="path10391"
       inkscape:connector-curvature="0"
       transform="translate(0,52.362161)" />
    <path
       style="fill:#ff0000;fill-opacity:1;stroke:#000000;stroke-width:1.78571427;stroke-miterlimit:4;stroke-dasharray:none;stroke-opacity:1"
       d="m 250.63315,829.53082 c -6.49746,-1.74665 -10.31072,-5.54729 -12.30467,-12.26392 -1.73714,-5.85156 0.54719,-14.11107 5.1531,-18.6322 3.89067,-3.81907 11.93769,-7.04275 19.98532,-8.00623 l 4.10714,-0.49172 1.90117,1.85642 c 3.82202,3.73205 6.83121,8.51453 8.0969,12.86833 0.75223,2.5876 0.75561,7.88858 0.007,10.7738 -1.87226,7.21459 -6.56288,11.95625 -13.61065,13.75877 -3.39016,0.86705 -10.35288,0.93846 -13.33518,0.13675 l 2e-5,0 z"
       id="path10399"
       inkscape:connector-curvature="0"
       transform="translate(0,52.362161)" />
    <path
       style="fill:#ff0000;fill-opacity:1;stroke:#000000;stroke-width:1.78571427;stroke-miterlimit:4;stroke-dasharray:none;stroke-opacity:1"
       d="m 753.74286,824.18709 c -6.02092,-1.45952 -9.61633,-4.80461 -11.97805,-11.1441 -1.22241,-3.28124 -1.26841,-8.12712 -0.10932,-11.51484 2.22829,-6.51274 5.76312,-10.18893 12.56727,-13.06987 3.9414,-1.66883 7.65212,-2.62641 12.20409,-3.14934 l 4.00434,-0.46003 1.25,1.02216 c 1.86338,1.52374 4.87321,5.17406 6.43135,7.79994 3.89719,6.56779 4.2086,14.21081 0.85648,21.02072 -2.43543,4.94763 -6.88868,8.32653 -12.55721,9.52777 -3.028,0.64167 -9.96135,0.62394 -12.66895,-0.0324 l 0,-10e-6 z"
       id="path10401"
       inkscape:connector-curvature="0"
       transform="translate(0,52.362161)" />
  </g>
</svg>
